<?xml version="1.0" standalone="no"?>
<!DOCTYPE svg PUBLIC "-//W3C//DTD SVG 20010904//EN"
 "http://www.w3.org/TR/2001/REC-SVG-20010904/DTD/svg10.dtd">
<svg version="1.0" xmlns="http://www.w3.org/2000/svg"
 width="768.000000pt" height="768.000000pt" viewBox="0 0 768.000000 768.000000"
 preserveAspectRatio="xMidYMid meet">
<metadata>
Created by potrace 1.11, written by Peter Selinger 2001-2013
</metadata>
<g transform="translate(0.000000,768.000000) scale(0.100000,-0.100000)"
fill="#000000" stroke="none">
<path d="M3780 6389 c-19 -5 -42 -13 -50 -16 -8 -3 -21 -8 -27 -10 -7 -1 -19
-5 -25 -6 -7 -2 -20 -7 -28 -10 -8 -3 -76 -24 -150 -47 -74 -23 -146 -45 -160
-50 -26 -9 -229 -73 -242 -76 -5 -1 -9 -2 -10 -4 -2 -1 -10 -3 -19 -5 -9 -1
-44 -13 -77 -24 -34 -12 -69 -24 -79 -26 -10 -2 -70 -20 -133 -40 -122 -39
-471 -149 -530 -167 -19 -6 -37 -11 -40 -11 -3 1 -13 -3 -23 -9 -10 -5 -26
-11 -35 -13 -9 -2 -54 -15 -100 -30 -46 -15 -89 -28 -95 -29 -7 -2 -20 -6 -29
-10 -9 -4 -22 -9 -30 -10 -16 -3 -198 -60 -283 -88 -33 -11 -67 -22 -75 -23
-8 -2 -51 -16 -95 -30 -117 -38 -308 -98 -320 -101 -5 -1 -68 -21 -140 -44
-71 -23 -168 -53 -215 -66 -47 -14 -94 -30 -105 -35 -11 -5 -29 -11 -40 -14
-11 -2 -85 -25 -165 -50 -80 -26 -158 -50 -175 -55 -67 -17 -173 -54 -222 -77
-44 -20 -53 -29 -59 -58 -9 -48 4 -92 33 -115 14 -11 65 -32 112 -46 47 -14
124 -38 171 -54 47 -15 132 -42 190 -60 58 -17 125 -39 150 -47 25 -8 52 -16
60 -18 8 -2 16 -4 18 -5 1 -2 5 -3 10 -4 21 -5 373 -116 405 -128 26 -10 27
-12 12 -34 -18 -28 -50 -84 -86 -149 -48 -90 -127 -304 -145 -395 -3 -14 -9
-41 -14 -60 -21 -81 -47 -266 -56 -385 -4 -67 -9 -82 -27 -95 -71 -50 -159
-158 -174 -215 -18 -70 -21 -101 -18 -170 2 -44 9 -94 15 -110 21 -58 35 -85
42 -85 5 0 8 -6 8 -14 0 -7 27 -39 60 -70 l61 -56 -6 -58 c-3 -31 -7 -70 -10
-87 -3 -16 -7 -47 -10 -67 -7 -55 -14 -103 -21 -146 -3 -20 -7 -55 -10 -77 -3
-36 -8 -69 -19 -145 -2 -14 -6 -50 -10 -80 -4 -30 -8 -66 -10 -80 -9 -56 -22
-157 -29 -215 -3 -22 -7 -56 -10 -75 -3 -19 -8 -51 -10 -70 -5 -48 -17 -130
-22 -160 -10 -57 -18 -138 -19 -187 0 -44 4 -57 28 -80 l27 -28 363 -2 363 -3
32 31 c27 27 35 43 34 69 -1 26 -13 140 -16 160 -3 14 -7 45 -10 70 -4 25 -8
56 -10 70 -3 14 -7 48 -10 75 -3 28 -8 61 -10 75 -6 34 -26 186 -31 230 -2 19
-8 67 -14 105 -5 39 -13 93 -16 120 -3 28 -8 66 -11 85 -3 19 -7 51 -9 70 -3
19 -7 49 -10 65 -3 17 -7 53 -10 80 -4 28 -8 62 -11 76 -2 15 -6 47 -9 70 -3
24 -8 61 -11 82 -3 20 -2 37 3 37 13 1 87 71 115 110 28 39 54 102 64 152 19
103 -8 249 -59 323 -27 39 -97 104 -119 111 -15 4 -21 16 -20 44 0 24 14 176
17 180 1 3 6 29 9 59 4 29 8 56 10 60 3 4 7 27 11 51 10 67 79 271 120 351 40
80 67 122 111 170 58 65 68 71 100 58 16 -6 36 -12 44 -14 8 -2 35 -10 60 -18
65 -22 372 -119 385 -122 5 -1 17 -5 25 -8 8 -3 33 -11 55 -17 22 -6 47 -14
55 -17 8 -4 17 -7 20 -8 3 0 39 -12 80 -25 41 -13 77 -24 80 -25 6 -1 108 -33
290 -92 74 -23 141 -43 148 -43 7 0 20 -4 30 -9 15 -9 269 -91 297 -97 6 -1
30 -9 55 -17 88 -29 397 -127 403 -127 3 0 18 -5 34 -12 84 -34 121 -33 250 8
65 21 120 39 123 39 7 2 57 17 175 55 55 17 105 33 110 34 6 1 75 23 155 48
340 108 472 150 490 153 10 2 27 8 37 13 10 6 21 11 25 11 4 1 13 3 20 5 7 2
36 11 63 19 83 25 644 201 765 240 36 12 67 22 70 22 46 12 68 18 85 25 24 11
69 24 73 21 1 -1 16 6 32 14 17 9 30 13 30 11 0 -3 39 9 88 25 48 17 96 32
106 34 22 5 84 24 106 32 8 4 17 7 20 8 3 0 46 14 95 29 50 16 95 29 100 31 6
1 17 5 25 8 8 3 89 29 180 57 91 28 181 56 200 63 19 6 40 12 45 13 6 1 30 9
55 17 25 8 119 39 209 67 200 63 226 82 217 158 -7 59 -32 82 -121 112 -36 12
-71 23 -78 24 -7 1 -25 7 -42 13 -16 6 -84 28 -150 48 -66 20 -144 45 -172 56
-29 10 -53 16 -53 13 0 -4 -7 -1 -15 6 -8 7 -15 10 -15 7 0 -3 -29 5 -65 18
-36 13 -67 23 -68 22 -1 0 -63 19 -137 43 -74 24 -137 44 -140 45 -3 1 -32 9
-65 20 -33 10 -62 19 -65 20 -3 0 -32 9 -65 20 -33 10 -64 19 -70 21 -5 1 -37
12 -70 24 -33 11 -60 20 -60 20 0 -1 -7 1 -15 4 -31 10 -185 58 -195 60 -5 1
-71 22 -145 46 -158 51 -138 45 -175 54 -16 4 -37 11 -45 15 -9 5 -31 12 -50
17 -43 10 -41 9 -60 17 -8 3 -44 14 -80 26 -208 64 -430 134 -466 147 -23 8
-50 16 -62 19 -24 4 -149 44 -177 56 -11 5 -29 11 -40 12 -11 2 -27 7 -35 10
-24 9 -154 51 -165 53 -9 2 -187 58 -510 160 -125 40 -175 47 -225 33z"/>
<path d="M1762 4028 c0 -7 -3 -65 -6 -128 -3 -63 -8 -151 -11 -195 -3 -44 -8
-125 -10 -180 -5 -97 -7 -127 -22 -375 -9 -145 -7 -259 5 -285 44 -95 66 -129
127 -191 59 -60 227 -184 250 -184 4 0 20 -9 36 -21 16 -11 29 -17 29 -13 0 4
8 0 18 -8 14 -12 122 -60 142 -63 3 -1 21 -8 41 -17 90 -39 440 -135 561 -154
44 -6 81 -13 107 -18 14 -3 45 -8 70 -11 25 -3 62 -7 81 -10 212 -28 396 -39
660 -39 228 0 443 11 570 28 19 3 57 7 83 11 140 16 292 43 447 80 36 8 74 17
85 20 47 11 232 69 260 81 17 7 62 25 100 40 165 64 346 175 439 269 93 93
117 136 143 245 4 19 3 138 -2 215 -2 33 -6 105 -9 160 -3 55 -8 134 -10 175
-3 41 -8 122 -11 180 -15 265 -20 358 -24 394 -1 4 -9 5 -18 1 -19 -7 -79 -26
-508 -162 -148 -46 -274 -86 -280 -87 -5 -1 -75 -23 -155 -49 -80 -26 -148
-47 -152 -47 -5 0 -25 -7 -45 -14 -21 -8 -105 -35 -188 -61 -82 -25 -166 -51
-185 -58 -19 -6 -37 -12 -40 -12 -7 -1 -229 -72 -301 -96 -88 -28 -108 -32
-204 -32 -73 0 -110 6 -195 32 -58 18 -132 41 -165 51 -123 37 -361 112 -380
120 -20 8 -251 81 -270 86 -13 2 -132 40 -205 64 -61 20 -232 74 -240 75 -7 1
-202 63 -275 87 -33 11 -64 21 -70 23 -5 1 -17 4 -25 8 -8 3 -62 20 -120 37
-58 18 -110 35 -116 37 -6 2 -11 -2 -12 -9z"/>
</g>
</svg>
